<svg width="310" height="92" viewBox="0 0 310 92" fill="none" xmlns="http://www.w3.org/2000/svg" role="img" aria-label="Studio Dentistico Gelmi">
  <rect width="310" height="92" rx="18" fill="transparent"/>
  <g transform="translate(8 8)">
    <path d="M30.7 6.3c-7.9 0-14.6 5.1-17.3 12.4-2.3 6.4-.6 13 1.8 19.1 2.2 5.8 4 12 4.8 18.1.8 6.2 2.2 12 5.4 12 3.8 0 4.3-9.8 5.6-16.1.8-3.9 2.1-7.1 5.5-7.1 3.3 0 4.7 3.2 5.5 7.1 1.3 6.3 1.8 16.1 5.6 16.1 3.2 0 4.6-5.8 5.4-12 .8-6.1 2.6-12.3 4.8-18.1 2.4-6.1 4.1-12.7 1.8-19.1C56.9 11.4 50.2 6.3 42.3 6.3c-2.5 0-4.9.5-7.1 1.5-1.2.5-2.5.5-3.7 0-2.1-1-4.4-1.5-6.8-1.5z" stroke="#2b6f78" stroke-width="2.4" stroke-linecap="round" stroke-linejoin="round"/>
    <path d="M23.2 24.4c4.1 3.8 11.7 4.8 18.8.6" stroke="#8fb1ac" stroke-width="2.1" stroke-linecap="round"/>
    <path d="M7.5 39.7c13.2-9.1 26.1-9.2 38.7-.3 6.3 4.4 13.5 5.1 21.5 2.1" stroke="#d7c9af" stroke-width="1.4" stroke-linecap="round"/>
  </g>
  <g transform="translate(91 22)">
    <text x="0" y="15" font-family="Georgia, 'Times New Roman', serif" font-size="15" letter-spacing="3.8" fill="#8c7a5a">STUDIO DENTISTICO</text>
    <text x="0" y="48" font-family="Georgia, 'Times New Roman', serif" font-size="33" letter-spacing="1.6" fill="#26383b">Gelmi</text>
    <line x1="0" y1="61" x2="172" y2="61" stroke="#d7c9af" stroke-width="1"/>
  </g>
</svg>
